Coordinates
version=1
nRows=19
nColumns=36
inDegrees=yes

Units are S.I. units (second, meters, Newtons, ...)
If the header above contains a line with 'inDegrees', this indicates whether rotational values are in degrees (yes) or radians (no).

endheader
time	pelvis_tilt	pelvis_list	pelvis_rotation	pelvis_tx	pelvis_ty	pelvis_tz	hip_flexion_r	hip_adduction_r	hip_rotation_r	knee_angle_r	knee_angle_r_beta	ankle_angle_r	subtalar_angle_r	mtp_angle_r	hip_flexion_l	hip_adduction_l	hip_rotation_l	knee_angle_l	knee_angle_l_beta	ankle_angle_l	subtalar_angle_l	mtp_angle_l	lumbar_extension	lumbar_bending	lumbar_rotation	arm_flex_r	arm_add_r	arm_rot_r	elbow_flex_r	pro_sup_r	arm_flex_l	arm_add_l	arm_rot_l	elbow_flex_l	pro_sup_l
      5.05000000	     -8.13099014	      0.58195828	     -0.64587710	     -0.14217036	      0.86066797	      0.02718416	     26.13465284	    -13.30049253	    -11.32720033	     26.14094613	      0.45624558	     16.12126945	     -0.70061574	     -7.49999987	     24.05196064	    -10.96677230	    -13.77162910	     26.19437293	      0.45717805	      8.49584593	    -11.51304345	     -7.49999987	     -7.93800266	     -3.56251156	     -0.68157773	     40.96553404	     11.53622417	     58.21652513	    135.20228764	    101.41996679	     47.05994936	      9.00650996	     58.43545822	    130.45720295	     79.34599574
      5.06666670	     -9.36825169	      0.46731069	     -0.62029246	     -0.14822406	      0.85555863	      0.02567775	     28.99712589	    -13.46529243	    -10.99437310	     28.47164015	      0.49692386	     17.19874632	     -0.80312865	     -7.49999987	     27.40835291	    -11.46382053	    -12.77136603	     29.33830072	      0.51204994	      9.57753327	    -12.31057231	     -7.49999987	     -8.03230134	     -3.55377724	     -0.79811867	     41.52706831	     11.79928166	     59.37578777	    134.49063008	    102.55031898	     47.70532468	      9.03337406	     58.97912902	    130.35470469	     80.19752687
      5.08333330	    -10.57953321	      0.31371663	     -0.65104187	     -0.15266651	      0.84542598	      0.02756970	     32.08689198	    -13.58979245	    -10.58351128	     31.25503272	      0.54550323	     18.66876775	     -0.80826851	     -7.49999987	     30.99098627	    -12.18930387	    -12.09577658	     33.07205338	      0.57721622	     10.97171682	    -12.75134181	     -7.49999987	     -8.19656058	     -3.55580820	     -0.74626917	     42.27007787	     11.90406906	     60.41447588	    133.84595841	     99.68094592	     48.41484290	      9.24062204	     60.09528216	    130.17033324	     78.39903428
      5.10000000	    -12.00331520	      0.28830149	     -0.86450163	     -0.16008834	      0.83716086	      0.02826462	     35.76207688	    -13.78501113	    -10.04796253	     34.29456342	      0.59855305	     19.91663857	     -0.92519453	     -7.49999987	     34.82808591	    -12.87027535	    -11.50789798	     36.69664268	      0.64047724	     12.46221232	    -12.67009787	     -7.49999987	     -8.44140406	     -3.72339185	     -0.72449722	     43.04534295	     12.01370205	     60.95557054	    133.15199593	    102.24052990	     49.07457362	      9.27006691	     60.76650304	    130.03259628	     79.63436000
      5.11666670	    -13.60327062	      0.22101157	     -0.80024421	     -0.16730902	      0.82700964	      0.02903653	     39.71159638	    -14.10427932	     -9.69518206	     37.59794676	      0.65620796	     21.18277259	     -0.98860803	     -7.49999987	     39.01408580	    -13.49141771	    -10.92929450	     40.26267495	      0.70271624	     13.93642978	    -12.39963091	     -7.49999987	     -8.70563802	     -3.74899383	     -0.72609048	     43.88564099	     11.95138777	     61.57838674	    132.49841229	    101.26097682	     49.99239166	      9.34009622	     61.63255203	    129.96745484	     78.28253909
      5.13333330	    -15.16817140	      0.10721770	     -0.75569943	     -0.17511446	      0.81931159	      0.02975675	     43.72375685	    -14.44649863	     -9.56168203	     40.99298109	      0.71546249	     22.34172425	     -0.68854388	     -7.49999987	     43.25887211	    -14.16680850	    -10.33203566	     43.98321671	      0.76765195	     15.37173750	    -11.91094404	     -7.49999987	     -9.28971467	     -3.69944258	     -0.72219014	     44.66201960	     11.85685476	     62.20925493	    132.05859335	    100.38944128	     50.93747180	      9.50133312	     62.46517401	    129.94604019	     77.25774059
      5.15000000	    -16.64395765	     -0.00232960	     -0.99162151	     -0.18335210	      0.80816054	      0.03214897	     47.95523256	    -14.60013760	     -9.30719363	     44.65369590	      0.77935402	     23.29405744	     -0.34327348	     -7.49999987	     47.43489196	    -15.05326239	     -9.68862149	     47.43056882	      0.82781959	     16.45902520	    -11.41093833	     -7.49999987	    -10.00246171	     -3.75451786	     -0.68908914	     45.65966419	     11.79827374	     62.89983830	    131.37910889	     98.94555325	     52.14335014	      9.28014040	     62.68881087	    129.82692299	     76.43334894
      5.16666670	    -18.02886756	     -0.16383764	     -0.96533594	     -0.18957394	      0.79342432	      0.03249096	     52.18306882	    -14.96150705	     -8.97317483	     48.66879366	      0.84943069	     24.46322815	      0.11014209	     -7.49999987	     51.48901345	    -15.87656009	     -9.18624642	     50.91498928	      0.88863420	     17.90654163	    -10.56470791	     -7.49999987	    -10.72431431	     -3.53808829	     -0.78173924	     46.86461627	     11.56315343	     62.99692880	    130.88427408	     98.85175504	     53.26200241	      9.27307492	     62.72782476	    129.61416490	     76.74602886
      5.18333330	    -19.08898485	     -0.29815491	     -1.17439176	     -0.19191367	      0.78258240	      0.03043970	     55.84891952	    -15.33765170	     -8.56114849	     52.32943263	      0.91332090	     25.19206465	      0.47799442	     -7.49999987	     54.72106982	    -16.68184034	     -8.84850945	     54.15167187	      0.94512497	     19.26790338	    -10.12837539	     -7.49999987	    -11.60365593	     -3.33933117	     -0.89698483	     47.78886148	     11.36609749	     63.39747610	    130.66736041	     99.23958304	     53.89691733	      9.31900134	     62.72934310	    129.21284579	     77.36997225
      5.20000000	    -19.70459154	     -0.30587353	     -1.33704409	     -0.19658406	      0.77182297	      0.03202934	     58.77240096	    -15.70896671	     -8.08185525	     55.41716061	      0.96721191	     25.93654633	      0.86456485	     -7.49999987	     57.28884476	    -17.35754238	     -8.50781396	     57.08254408	      0.99627834	     20.33781107	     -9.78199209	     -7.49999987	    -13.01066458	     -3.33223057	     -0.95900470	     48.59852742	     11.05744647	     63.70615357	    130.60832707	     97.15113130	     54.58303582	      9.34517392	     62.76274243	    129.10073503	     76.18881044
      5.21666670	    -20.42358279	     -0.17526473	     -1.43577376	     -0.19627206	      0.75708897	      0.03054052	     61.81612238	    -16.32721046	     -7.44251772	     58.88005839	      1.02765088	     27.40651149	      1.84480942	     -7.49999987	     60.13371691	    -17.96460022	     -8.20315621	     60.35759195	      1.05343871	     21.61937818	     -9.10109046	     -7.49999987	    -13.86524324	     -3.38729280	     -1.05592895	     48.90559226	     10.76659157	     64.48773929	    130.24019201	     97.54425449	     54.59734958	      9.26291441	     63.18301654	    128.80082901	     76.70615208
      5.23333330	    -21.07826910	     -0.06302657	     -1.50274563	     -0.19926762	      0.74055666	      0.03212902	     64.89791667	    -16.74642767	     -6.60027839	     62.54541687	      1.09162346	     28.54902464	      1.91295264	     -7.49999987	     63.03652711	    -18.70362769	     -7.88212318	     63.87457206	      1.11482159	     22.84262207	     -8.41649767	     -7.49999987	    -14.75369230	     -3.52429599	     -1.02957829	     49.07079203	     10.43921443	     64.66220236	    130.22594814	    101.19808675	     54.53335344	      9.31033873	     63.16941127	    128.61271698	     81.78532168
      5.25000000	    -21.78328755	      0.12453803	     -1.71724464	     -0.20195832	      0.72704653	      0.03299792	     68.04550136	    -17.01518984	     -5.57403463	     66.03413634	      1.15251310	     29.86540385	      2.64661033	     -7.49999987	     65.98605447	    -19.42686776	     -7.39832604	     67.53490179	      1.17870640	     23.48631926	     -8.09251854	     -7.49999987	    -15.72057717	     -3.61354173	     -0.92438733	     49.39203236	     10.23052133	     65.55082919	    130.18719470	     99.88665112	     54.48067047	      9.22771266	     63.72152542	    128.83843419	     81.10980275
      5.26666670	    -22.41070608	      0.34460451	     -1.77347294	     -0.20302218	      0.71095454	      0.03244064	     71.19192415	    -17.34627635	     -4.42232138	     69.64503522	      1.21553517	     31.21208744	      3.26172531	     -7.49999987	     68.71991527	    -19.94249529	     -6.88883808	     71.05712382	      1.24018077	     24.53794759	     -7.47454843	     -7.49999987	    -16.67730107	     -3.71787608	     -0.90948679	     49.59808370	     10.13745639	     66.33463279	    130.23899475	     98.77728469	     54.39775748	      9.17132916	     64.42695025	    129.15310934	     80.24385063
      5.28333330	    -23.17724884	      0.63847643	     -1.85052142	     -0.20626044	      0.69484336	      0.03271628	     74.64277845	    -17.46983306	     -2.91295256	     73.21838964	      1.27790197	     32.59081381	      3.78299778	     -7.49999987	     71.69545262	    -20.45110763	     -6.46802618	     74.71643543	      1.30404780	     25.90312785	     -6.70355116	     -7.49999987	    -17.52913897	     -3.72717380	     -0.74236179	     50.02701100	     10.06366236	     66.88941163	    130.00431111	     98.58609034	     54.50556283	      9.16558692	     64.67415792	    129.41527547	     80.25900632
      5.30000000	    -23.79660204	      0.75603655	     -1.66426189	     -0.21160963	      0.67886587	      0.03531844	     77.87585568	    -17.61656795	     -1.72320578	     76.72822959	      1.33916024	     33.58017882	      3.92097486	     -7.49999987	     74.86850090	    -20.92967880	     -5.73362081	     78.12557561	      1.36354852	     26.46569332	     -6.35736204	     -7.49999987	    -18.65637647	     -3.70964890	     -0.68401421	     50.57750068	      9.79407679	     67.10803568	    130.17398982	     99.32026662	     55.15321856	      9.35495651	     64.94028947	    129.44849549	     82.01379353
      5.31666670	    -24.32921914	      0.87990462	     -1.38168645	     -0.21129263	      0.66682294	      0.03507629	     80.60912149	    -17.94558632	     -0.81677923	     79.74779107	      1.39186153	     34.55872900	      4.24453607	     -7.49999987	     77.61267287	    -21.33552882	     -5.26282034	     81.09891528	      1.41544309	     26.79054447	     -5.76011438	     -7.49999987	    -19.82272908	     -3.70216002	     -0.61747399	     50.91498730	      9.50027135	     67.33731981	    130.00010365	     99.88063661	     55.27179621	      9.28726793	     65.44419115	    129.60361939	     82.82254195
      5.33333330	    -24.87137864	      0.91529808	     -1.12054763	     -0.20900718	      0.65264365	      0.03878158	     83.09665440	    -18.15640448	     -0.33070157	     82.76127868	      1.44445681	     35.36406495	      4.28405090	     -7.49999987	     80.03815881	    -21.93548643	     -4.70213530	     83.74466778	      1.46162018	     27.33243299	     -4.95087046	     -7.49999987	    -20.87448415	     -3.72400320	     -0.60533698	     51.07802144	      9.22033478	     67.80469707	    129.84763950	     99.43797939	     55.23837066	      9.11983595	     66.29163760	    129.89024276	     82.68690389
      5.35000000	    -25.40137008	      0.88682962	     -0.88578204	     -0.21648142	      0.63735818	      0.04183983	     85.67909478	    -18.19455945	      0.22939816	     85.52070170	      1.49261782	     36.12081757	      3.98026693	     -7.49999987	     82.90438078	    -22.46961510	     -3.93686255	     86.61556000	      1.51172671	     27.61584261	     -4.56665969	     -7.49999987	    -22.09453238	     -3.76379495	     -0.71706855	     51.66857134	      9.28449458	     67.73563584	    129.69450123	    103.69045821	     55.47824319	      8.86422125	     66.77429762	    130.33194750	     88.35224950
